<svg width="9620" height="2029" viewBox="0 0 9620 2029" fill="none" xmlns="http://www.w3.org/2000/svg">
<path d="M1014.08 90C1524.44 90 1938.16 503.726 1938.16 1014.08C1938.16 1524.44 1524.44 1938.16 1014.08 1938.16C503.726 1938.16 90 1524.44 90 1014.08C90 503.726 503.726 90 1014.08 90Z" stroke="white" stroke-width="180"/>
<path d="M1013.93 420C1341.95 420 1607.86 685.911 1607.86 1013.93C1607.86 1341.95 1341.95 1607.86 1013.93 1607.86C685.911 1607.86 420 1341.95 420 1013.93C420 685.911 685.911 420 1013.93 420Z" stroke="white" stroke-width="110"/>
<mask id="path-3-outside-1_606_2" maskUnits="userSpaceOnUse" x="2489" y="434" width="6999" height="1147" fill="black">
<rect fill="white" x="2489" y="434" width="6999" height="1147"/>
<path d="M2490.1 469.091H2647.77L3018.51 1374.63H3031.3L3402.03 469.091H3559.7V1560H3436.12V731.165H3425.47L3084.56 1560H2965.24L2624.34 731.165H2613.68V1560H2490.1V469.091ZM3807.53 1560V741.818H3933.24V1560H3807.53ZM3871.45 605.455C3846.95 605.455 3825.82 597.109 3808.06 580.419C3790.66 563.729 3781.96 543.665 3781.96 520.227C3781.96 496.79 3790.66 476.726 3808.06 460.035C3825.82 443.345 3846.95 435 3871.45 435C3895.95 435 3916.9 443.345 3934.31 460.035C3952.06 476.726 3960.94 496.79 3960.94 520.227C3960.94 543.665 3952.06 563.729 3934.31 580.419C3916.9 597.109 3895.95 605.455 3871.45 605.455ZM4289.2 1067.81V1560H4163.49V741.818H4284.94V869.659H4295.59C4314.76 828.111 4343.88 794.73 4382.95 769.517C4422.01 743.949 4472.44 731.165 4534.23 731.165C4589.62 731.165 4638.1 742.528 4679.64 765.256C4721.19 787.628 4753.51 821.719 4776.59 867.528C4799.67 912.983 4811.21 970.511 4811.21 1040.11V1560H4685.5V1048.64C4685.5 984.361 4668.81 934.29 4635.43 898.423C4602.05 862.202 4556.24 844.091 4498 844.091C4457.88 844.091 4422.01 852.791 4390.4 870.192C4359.15 887.592 4334.47 912.983 4316.36 946.364C4298.25 979.744 4289.2 1020.23 4289.2 1067.81ZM5040.93 1560V741.818H5166.64V1560H5040.93ZM5104.85 605.455C5080.35 605.455 5059.22 597.109 5041.46 580.419C5024.06 563.729 5015.36 543.665 5015.36 520.227C5015.36 496.79 5024.06 476.726 5041.46 460.035C5059.22 443.345 5080.35 435 5104.85 435C5129.35 435 5150.3 443.345 5167.7 460.035C5185.46 476.726 5194.34 496.79 5194.34 520.227C5194.34 543.665 5185.46 563.729 5167.7 580.419C5150.3 597.109 5129.35 605.455 5104.85 605.455ZM5396.88 1560V741.818H5518.33V869.659H5528.99C5546.03 825.98 5573.55 792.067 5611.55 767.919C5649.55 743.416 5695.18 731.165 5748.45 731.165C5802.42 731.165 5847.35 743.416 5883.21 767.919C5919.43 792.067 5947.67 825.98 5967.91 869.659H5976.43C5997.38 827.401 6028.81 793.842 6070.71 768.984C6112.62 743.771 6162.87 731.165 6221.46 731.165C6294.61 731.165 6354.45 754.07 6400.97 799.879C6447.49 845.334 6470.75 916.179 6470.75 1012.41V1560H6345.04V1012.41C6345.04 952.045 6328.53 908.899 6295.5 882.976C6262.47 857.053 6223.59 844.091 6178.85 844.091C6121.32 844.091 6076.75 861.491 6045.14 896.293C6013.54 930.739 5997.74 974.418 5997.74 1027.33V1560H5869.9V999.631C5869.9 953.111 5854.8 915.646 5824.62 887.237C5794.43 858.473 5755.55 844.091 5707.96 844.091C5675.29 844.091 5644.75 852.791 5616.35 870.192C5588.29 887.592 5565.56 911.74 5548.16 942.635C5531.12 973.175 5522.6 1008.51 5522.6 1048.64V1560H5396.88ZM6941.36 1579.18C6889.52 1579.18 6842.46 1569.41 6800.21 1549.88C6757.95 1529.99 6724.39 1501.41 6699.53 1464.12C6674.67 1426.48 6662.24 1381.02 6662.24 1327.76C6662.24 1280.88 6671.48 1242.88 6689.94 1213.76C6708.41 1184.29 6733.09 1161.21 6763.98 1144.52C6794.88 1127.83 6828.97 1115.4 6866.26 1107.23C6903.9 1098.71 6941.72 1091.96 6979.72 1086.99C7029.43 1080.6 7069.74 1075.8 7100.63 1072.61C7131.88 1069.06 7154.61 1063.2 7168.81 1055.03C7183.37 1046.86 7190.65 1032.66 7190.65 1012.41V1008.15C7190.65 955.597 7176.27 914.759 7147.51 885.639C7119.1 856.52 7075.95 841.96 7018.07 841.96C6958.05 841.96 6911 855.099 6876.91 881.378C6842.82 907.656 6818.85 935.71 6805 965.54L6685.68 922.926C6706.99 873.21 6735.4 834.503 6770.91 806.804C6806.77 778.75 6845.84 759.219 6888.1 748.21C6930.71 736.847 6972.61 731.165 7013.81 731.165C7040.08 731.165 7070.27 734.361 7104.36 740.753C7138.81 746.79 7172.01 759.396 7203.97 778.572C7236.28 797.749 7263.1 826.69 7284.4 865.398C7305.71 904.105 7316.36 955.952 7316.36 1020.94V1560H7190.65V1449.2H7184.26C7175.74 1466.96 7161.53 1485.96 7141.65 1506.2C7121.76 1526.44 7095.3 1543.66 7062.28 1557.87C7029.25 1572.07 6988.95 1579.18 6941.36 1579.18ZM6960.54 1466.25C7010.25 1466.25 7052.16 1456.48 7086.25 1436.95C7120.7 1417.42 7146.62 1392.21 7164.02 1361.31C7181.77 1330.42 7190.65 1297.93 7190.65 1263.84V1148.78C7185.33 1155.17 7173.61 1161.03 7155.5 1166.36C7137.74 1171.33 7117.14 1175.77 7093.71 1179.67C7070.62 1183.22 7048.07 1186.42 7026.06 1189.26C7004.4 1191.75 6986.82 1193.88 6973.32 1195.65C6940.65 1199.91 6910.11 1206.84 6881.7 1216.43C6853.65 1225.66 6830.92 1239.69 6813.52 1258.51C6796.48 1276.97 6787.95 1302.19 6787.95 1334.15C6787.95 1377.83 6804.11 1410.85 6836.43 1433.22C6869.1 1455.24 6910.47 1466.25 6960.54 1466.25ZM7671.52 469.091V1560H7545.81V469.091H7671.52ZM8385.43 1560H8246.94L8647.51 469.091H8783.87L9184.44 1560H9045.94L8719.95 641.676H8711.43L8385.43 1560ZM8436.57 1133.86H8994.81V1251.05H8436.57V1133.86ZM9486.46 469.091V1560H9354.36V469.091H9486.46Z"/>
</mask>
<path d="M2490.1 469.091H2647.77L3018.51 1374.63H3031.3L3402.03 469.091H3559.7V1560H3436.12V731.165H3425.47L3084.56 1560H2965.24L2624.34 731.165H2613.68V1560H2490.1V469.091ZM3807.53 1560V741.818H3933.24V1560H3807.53ZM3871.45 605.455C3846.95 605.455 3825.82 597.109 3808.06 580.419C3790.66 563.729 3781.96 543.665 3781.96 520.227C3781.96 496.79 3790.66 476.726 3808.06 460.035C3825.82 443.345 3846.95 435 3871.45 435C3895.95 435 3916.9 443.345 3934.31 460.035C3952.06 476.726 3960.94 496.79 3960.94 520.227C3960.94 543.665 3952.06 563.729 3934.31 580.419C3916.9 597.109 3895.95 605.455 3871.45 605.455ZM4289.2 1067.81V1560H4163.49V741.818H4284.94V869.659H4295.59C4314.76 828.111 4343.88 794.73 4382.95 769.517C4422.01 743.949 4472.44 731.165 4534.23 731.165C4589.62 731.165 4638.1 742.528 4679.64 765.256C4721.19 787.628 4753.51 821.719 4776.59 867.528C4799.67 912.983 4811.21 970.511 4811.21 1040.11V1560H4685.5V1048.64C4685.5 984.361 4668.81 934.29 4635.43 898.423C4602.05 862.202 4556.24 844.091 4498 844.091C4457.88 844.091 4422.01 852.791 4390.4 870.192C4359.15 887.592 4334.47 912.983 4316.36 946.364C4298.25 979.744 4289.2 1020.23 4289.2 1067.81ZM5040.93 1560V741.818H5166.64V1560H5040.93ZM5104.85 605.455C5080.35 605.455 5059.22 597.109 5041.46 580.419C5024.06 563.729 5015.36 543.665 5015.36 520.227C5015.36 496.79 5024.06 476.726 5041.46 460.035C5059.22 443.345 5080.35 435 5104.85 435C5129.35 435 5150.3 443.345 5167.7 460.035C5185.46 476.726 5194.34 496.79 5194.34 520.227C5194.34 543.665 5185.46 563.729 5167.7 580.419C5150.3 597.109 5129.35 605.455 5104.85 605.455ZM5396.88 1560V741.818H5518.33V869.659H5528.99C5546.03 825.98 5573.55 792.067 5611.55 767.919C5649.55 743.416 5695.18 731.165 5748.45 731.165C5802.42 731.165 5847.35 743.416 5883.21 767.919C5919.43 792.067 5947.67 825.98 5967.91 869.659H5976.43C5997.38 827.401 6028.81 793.842 6070.71 768.984C6112.62 743.771 6162.87 731.165 6221.46 731.165C6294.61 731.165 6354.45 754.07 6400.97 799.879C6447.49 845.334 6470.75 916.179 6470.75 1012.41V1560H6345.04V1012.41C6345.04 952.045 6328.53 908.899 6295.5 882.976C6262.47 857.053 6223.59 844.091 6178.85 844.091C6121.32 844.091 6076.75 861.491 6045.14 896.293C6013.54 930.739 5997.74 974.418 5997.74 1027.33V1560H5869.9V999.631C5869.9 953.111 5854.8 915.646 5824.62 887.237C5794.43 858.473 5755.55 844.091 5707.96 844.091C5675.29 844.091 5644.75 852.791 5616.35 870.192C5588.29 887.592 5565.56 911.74 5548.16 942.635C5531.12 973.175 5522.6 1008.51 5522.6 1048.64V1560H5396.88ZM6941.36 1579.18C6889.52 1579.18 6842.46 1569.41 6800.21 1549.88C6757.95 1529.99 6724.39 1501.41 6699.53 1464.12C6674.67 1426.48 6662.24 1381.02 6662.24 1327.76C6662.24 1280.88 6671.48 1242.88 6689.94 1213.76C6708.41 1184.29 6733.09 1161.21 6763.98 1144.52C6794.88 1127.83 6828.97 1115.4 6866.26 1107.23C6903.9 1098.71 6941.72 1091.96 6979.72 1086.99C7029.43 1080.6 7069.74 1075.8 7100.63 1072.61C7131.88 1069.06 7154.61 1063.2 7168.81 1055.03C7183.37 1046.86 7190.65 1032.66 7190.65 1012.41V1008.15C7190.65 955.597 7176.27 914.759 7147.51 885.639C7119.1 856.52 7075.95 841.96 7018.07 841.96C6958.05 841.96 6911 855.099 6876.91 881.378C6842.82 907.656 6818.85 935.71 6805 965.54L6685.68 922.926C6706.99 873.21 6735.4 834.503 6770.91 806.804C6806.77 778.75 6845.84 759.219 6888.1 748.21C6930.71 736.847 6972.61 731.165 7013.81 731.165C7040.08 731.165 7070.27 734.361 7104.36 740.753C7138.81 746.79 7172.01 759.396 7203.97 778.572C7236.28 797.749 7263.1 826.69 7284.4 865.398C7305.71 904.105 7316.36 955.952 7316.36 1020.94V1560H7190.65V1449.2H7184.26C7175.74 1466.96 7161.53 1485.96 7141.65 1506.2C7121.76 1526.44 7095.3 1543.66 7062.28 1557.87C7029.25 1572.07 6988.95 1579.18 6941.36 1579.18ZM6960.54 1466.25C7010.25 1466.25 7052.16 1456.48 7086.25 1436.95C7120.7 1417.42 7146.62 1392.21 7164.02 1361.31C7181.77 1330.42 7190.65 1297.93 7190.65 1263.84V1148.78C7185.33 1155.17 7173.61 1161.03 7155.5 1166.36C7137.74 1171.33 7117.14 1175.77 7093.71 1179.67C7070.62 1183.22 7048.07 1186.42 7026.06 1189.26C7004.4 1191.75 6986.82 1193.88 6973.32 1195.65C6940.65 1199.91 6910.11 1206.84 6881.7 1216.43C6853.65 1225.66 6830.92 1239.69 6813.52 1258.51C6796.48 1276.97 6787.95 1302.19 6787.95 1334.15C6787.95 1377.83 6804.11 1410.85 6836.43 1433.22C6869.1 1455.24 6910.47 1466.25 6960.54 1466.25ZM7671.52 469.091V1560H7545.81V469.091H7671.52ZM8385.43 1560H8246.94L8647.51 469.091H8783.87L9184.44 1560H9045.94L8719.95 641.676H8711.43L8385.43 1560ZM8436.57 1133.86H8994.81V1251.05H8436.57V1133.86ZM9486.46 469.091V1560H9354.36V469.091H9486.46Z" fill="white"/>
<path d="M2490.1 469.091V468.091H2489.1V469.091H2490.1ZM2647.77 469.091L2648.7 468.712L2648.44 468.091H2647.77V469.091ZM3018.51 1374.63L3017.59 1375.01L3017.84 1375.63H3018.51V1374.63ZM3031.3 1374.63V1375.63H3031.97L3032.22 1375.01L3031.3 1374.63ZM3402.03 469.091V468.091H3401.36L3401.11 468.712L3402.03 469.091ZM3559.7 469.091H3560.7V468.091H3559.7V469.091ZM3559.7 1560V1561H3560.7V1560H3559.7ZM3436.12 1560H3435.12V1561H3436.12V1560ZM3436.12 731.165H3437.12V730.165H3436.12V731.165ZM3425.47 731.165V730.165H3424.8L3424.55 730.784L3425.47 731.165ZM3084.56 1560V1561H3085.23L3085.49 1560.38L3084.56 1560ZM2965.24 1560L2964.32 1560.38L2964.57 1561H2965.24V1560ZM2624.34 731.165L2625.26 730.784L2625.01 730.165H2624.34V731.165ZM2613.68 731.165V730.165H2612.68V731.165H2613.68ZM2613.68 1560V1561H2614.68V1560H2613.68ZM2490.1 1560H2489.1V1561H2490.1V1560ZM2490.1 469.091V470.091H2647.77V469.091V468.091H2490.1V469.091ZM2647.77 469.091L2646.85 469.47L3017.59 1375.01L3018.51 1374.63L3019.44 1374.25L2648.7 468.712L2647.77 469.091ZM3018.51 1374.63V1375.63H3031.3V1374.63V1373.63H3018.51V1374.63ZM3031.3 1374.63L3032.22 1375.01L3402.96 469.47L3402.03 469.091L3401.11 468.712L3030.37 1374.25L3031.3 1374.63ZM3402.03 469.091V470.091H3559.7V469.091V468.091H3402.03V469.091ZM3559.7 469.091H3558.7V1560H3559.7H3560.7V469.091H3559.7ZM3559.7 1560V1559H3436.12V1560V1561H3559.7V1560ZM3436.12 1560H3437.12V731.165H3436.12H3435.12V1560H3436.12ZM3436.12 731.165V730.165H3425.47V731.165V732.165H3436.12V731.165ZM3425.47 731.165L3424.55 730.784L3083.64 1559.62L3084.56 1560L3085.49 1560.38L3426.4 731.545L3425.47 731.165ZM3084.56 1560V1559H2965.24V1560V1561H3084.56V1560ZM2965.24 1560L2966.17 1559.62L2625.26 730.784L2624.34 731.165L2623.41 731.545L2964.32 1560.38L2965.24 1560ZM2624.34 731.165V730.165H2613.68V731.165V732.165H2624.34V731.165ZM2613.68 731.165H2612.68V1560H2613.68H2614.68V731.165H2613.68ZM2613.68 1560V1559H2490.1V1560V1561H2613.68V1560ZM2490.1 1560H2491.1V469.091H2490.1H2489.1V1560H2490.1ZM3807.53 1560H3806.53V1561H3807.53V1560ZM3807.53 741.818V740.818H3806.53V741.818H3807.53ZM3933.24 741.818H3934.24V740.818H3933.24V741.818ZM3933.24 1560V1561H3934.24V1560H3933.24ZM3808.06 580.419L3807.37 581.141L3807.38 581.148L3808.06 580.419ZM3808.06 460.035L3807.38 459.307L3807.37 459.314L3808.06 460.035ZM3934.31 460.035L3933.61 460.757L3933.62 460.764L3934.31 460.035ZM3934.31 580.419L3933.62 579.69L3933.61 579.697L3934.31 580.419ZM3807.53 1560H3808.53V741.818H3807.53H3806.53V1560H3807.53ZM3807.53 741.818V742.818H3933.24V741.818V740.818H3807.53V741.818ZM3933.24 741.818H3932.24V1560H3933.24H3934.24V741.818H3933.24ZM3933.24 1560V1559H3807.53V1560V1561H3933.24V1560ZM3871.45 605.455V604.455C3847.2 604.455 3826.32 596.205 3808.75 579.69L3808.06 580.419L3807.38 581.148C3825.32 598.013 3846.69 606.455 3871.45 606.455V605.455ZM3808.06 580.419L3808.75 579.697C3791.54 563.189 3782.96 543.384 3782.96 520.227H3781.96H3780.96C3780.96 543.946 3789.78 564.268 3807.37 581.141L3808.06 580.419ZM3781.96 520.227H3782.96C3782.96 497.071 3791.54 477.265 3808.75 460.757L3808.06 460.035L3807.37 459.314C3789.78 476.187 3780.96 496.509 3780.96 520.227H3781.96ZM3808.06 460.035L3808.75 460.764C3826.32 444.249 3847.2 436 3871.45 436V435V434C3846.69 434 3825.32 442.441 3807.38 459.307L3808.06 460.035ZM3871.45 435V436C3895.7 436 3916.4 444.249 3933.61 460.757L3934.31 460.035L3935 459.314C3917.41 442.442 3896.21 434 3871.45 434V435ZM3934.31 460.035L3933.62 460.764C3951.18 477.274 3959.94 497.078 3959.94 520.227H3960.94H3961.94C3961.94 496.502 3952.94 476.178 3934.99 459.307L3934.31 460.035ZM3960.94 520.227H3959.94C3959.94 543.377 3951.18 563.181 3933.62 579.69L3934.31 580.419L3934.99 581.148C3952.94 564.277 3961.94 543.953 3961.94 520.227H3960.94ZM3934.31 580.419L3933.61 579.697C3916.4 596.206 3895.7 604.455 3871.45 604.455V605.455V606.455C3896.21 606.455 3917.41 598.013 3935 581.141L3934.31 580.419ZM4289.2 1560V1561H4290.2V1560H4289.2ZM4163.49 1560H4162.49V1561H4163.49V1560ZM4163.49 741.818V740.818H4162.49V741.818H4163.49ZM4284.94 741.818H4285.94V740.818H4284.94V741.818ZM4284.94 869.659H4283.94V870.659H4284.94V869.659ZM4295.59 869.659V870.659H4296.23L4296.5 870.078L4295.59 869.659ZM4382.95 769.517L4383.49 770.357L4383.49 770.354L4382.95 769.517ZM4679.64 765.256L4679.16 766.133L4679.17 766.136L4679.64 765.256ZM4776.59 867.528L4775.7 867.978L4775.7 867.981L4776.59 867.528ZM4811.21 1560V1561H4812.21V1560H4811.21ZM4685.5 1560H4684.5V1561H4685.5V1560ZM4635.43 898.423L4634.7 899.101L4634.7 899.105L4635.43 898.423ZM4390.4 870.192L4389.92 869.316L4389.92 869.318L4390.4 870.192ZM4316.36 946.364L4315.48 945.887L4316.36 946.364ZM4289.2 1067.81H4288.2V1560H4289.2H4290.2V1067.81H4289.2ZM4289.2 1560V1559H4163.49V1560V1561H4289.2V1560ZM4163.49 1560H4164.49V741.818H4163.49H4162.49V1560H4163.49ZM4163.49 741.818V742.818H4284.94V741.818V740.818H4163.49V741.818ZM4284.94 741.818H4283.94V869.659H4284.94H4285.94V741.818H4284.94ZM4284.94 869.659V870.659H4295.59V869.659V868.659H4284.94V869.659ZM4295.59 869.659L4296.5 870.078C4315.59 828.705 4344.58 795.469 4383.49 770.357L4382.95 769.517L4382.4 768.677C4343.19 793.991 4313.94 827.517 4294.68 869.24L4295.59 869.659ZM4382.95 769.517L4383.49 770.354C4422.35 744.922 4472.57 732.165 4534.23 732.165V731.165V730.165C4472.3 730.165 4421.67 742.976 4382.4 768.68L4382.95 769.517ZM4534.23 731.165V732.165C4589.48 732.165 4637.79 743.499 4679.16 766.133L4679.64 765.256L4680.12 764.378C4638.41 741.558 4589.76 730.165 4534.23 730.165V731.165ZM4679.64 765.256L4679.17 766.136C4720.52 788.403 4752.7 822.335 4775.7 867.978L4776.59 867.528L4777.48 867.078C4754.32 821.102 4721.86 786.853 4680.12 764.375L4679.64 765.256ZM4776.59 867.528L4775.7 867.981C4798.69 913.254 4810.21 970.614 4810.21 1040.11H4811.21H4812.21C4812.21 970.409 4800.66 912.712 4777.48 867.076L4776.59 867.528ZM4811.21 1040.11H4810.21V1560H4811.21H4812.21V1040.11H4811.21ZM4811.21 1560V1559H4685.5V1560V1561H4811.21V1560ZM4685.5 1560H4686.5V1048.64H4685.5H4684.5V1560H4685.5ZM4685.5 1048.64H4686.5C4686.5 984.189 4669.77 933.845 4636.16 897.742L4635.43 898.423L4634.7 899.105C4667.86 934.734 4684.5 984.533 4684.5 1048.64H4685.5ZM4635.43 898.423L4636.17 897.746C4602.56 861.281 4556.47 843.091 4498 843.091V844.091V845.091C4556.02 845.091 4601.54 863.122 4634.7 899.101L4635.43 898.423ZM4498 844.091V843.091C4457.73 843.091 4421.69 851.825 4389.92 869.316L4390.4 870.192L4390.89 871.068C4422.33 853.757 4458.03 845.091 4498 845.091V844.091ZM4390.4 870.192L4389.92 869.318C4358.49 886.817 4333.68 912.35 4315.48 945.887L4316.36 946.364L4317.24 946.84C4335.27 913.616 4359.82 888.368 4390.89 871.065L4390.4 870.192ZM4316.36 946.364L4315.48 945.887C4297.28 979.446 4288.2 1020.1 4288.2 1067.81H4289.2H4290.2C4290.2 1020.35 4299.23 980.042 4317.24 946.84L4316.36 946.364ZM5040.93 1560H5039.93V1561H5040.93V1560ZM5040.93 741.818V740.818H5039.93V741.818H5040.93ZM5166.64 741.818H5167.64V740.818H5166.64V741.818ZM5166.64 1560V1561H5167.64V1560H5166.64ZM5041.46 580.419L5040.77 581.141L5040.78 581.148L5041.46 580.419ZM5041.46 460.035L5040.78 459.307L5040.77 459.314L5041.46 460.035ZM5167.7 460.035L5167.01 460.757L5167.02 460.764L5167.7 460.035ZM5167.7 580.419L5167.02 579.69L5167.01 579.697L5167.7 580.419ZM5040.93 1560H5041.93V741.818H5040.93H5039.93V1560H5040.93ZM5040.93 741.818V742.818H5166.64V741.818V740.818H5040.93V741.818ZM5166.64 741.818H5165.64V1560H5166.64H5167.64V741.818H5166.64ZM5166.64 1560V1559H5040.93V1560V1561H5166.64V1560ZM5104.85 605.455V604.455C5080.6 604.455 5059.71 596.205 5042.15 579.69L5041.46 580.419L5040.78 581.148C5058.72 598.013 5080.09 606.455 5104.85 606.455V605.455ZM5041.46 580.419L5042.15 579.697C5024.94 563.189 5016.36 543.384 5016.36 520.227H5015.36H5014.36C5014.36 543.946 5023.18 564.268 5040.77 581.141L5041.46 580.419ZM5015.36 520.227H5016.36C5016.36 497.071 5024.94 477.265 5042.15 460.757L5041.46 460.035L5040.77 459.314C5023.18 476.187 5014.36 496.509 5014.36 520.227H5015.36ZM5041.46 460.035L5042.15 460.764C5059.71 444.249 5080.6 436 5104.85 436V435V434C5080.09 434 5058.72 442.441 5040.78 459.307L5041.46 460.035ZM5104.85 435V436C5129.1 436 5149.8 444.249 5167.01 460.757L5167.7 460.035L5168.4 459.314C5150.81 442.442 5129.6 434 5104.85 434V435ZM5167.7 460.035L5167.02 460.764C5184.58 477.274 5193.34 497.078 5193.34 520.227H5194.34H5195.34C5195.34 496.502 5186.34 476.178 5168.39 459.307L5167.7 460.035ZM5194.34 520.227H5193.34C5193.34 543.377 5184.58 563.181 5167.02 579.69L5167.7 580.419L5168.39 581.148C5186.34 564.277 5195.34 543.953 5195.34 520.227H5194.34ZM5167.7 580.419L5167.01 579.697C5149.8 596.206 5129.1 604.455 5104.85 604.455V605.455V606.455C5129.6 606.455 5150.81 598.013 5168.4 581.141L5167.7 580.419ZM5396.89 1560H5395.89V1561H5396.89V1560ZM5396.89 741.818V740.818H5395.89V741.818H5396.89ZM5518.33 741.818H5519.33V740.818H5518.33V741.818ZM5518.33 869.659H5517.33V870.659H5518.33V869.659ZM5528.99 869.659V870.659H5529.67L5529.92 870.023L5528.99 869.659ZM5611.55 767.919L5612.09 768.763L5612.09 768.759L5611.55 767.919ZM5883.21 767.919L5882.65 768.745L5882.66 768.751L5883.21 767.919ZM5967.91 869.659L5967 870.08L5967.27 870.659H5967.91V869.659ZM5976.43 869.659V870.659H5977.05L5977.33 870.103L5976.43 869.659ZM6070.71 768.984L6071.22 769.844L6071.23 769.841L6070.71 768.984ZM6400.97 799.879L6400.27 800.592L6400.27 800.594L6400.97 799.879ZM6470.75 1560V1561H6471.75V1560H6470.75ZM6345.04 1560H6344.04V1561H6345.04V1560ZM6295.5 882.976L6294.88 883.762L6295.5 882.976ZM6045.15 896.293L6045.88 896.969L6045.89 896.965L6045.15 896.293ZM5997.74 1560V1561H5998.74V1560H5997.74ZM5869.9 1560H5868.9V1561H5869.9V1560ZM5824.62 887.237L5823.93 887.961L5823.93 887.965L5824.62 887.237ZM5616.35 870.192L5615.82 869.339L5615.82 869.342L5616.35 870.192ZM5548.16 942.635L5547.29 942.144L5547.29 942.148L5548.16 942.635ZM5522.6 1560V1561H5523.6V1560H5522.6ZM5396.89 1560H5397.89V741.818H5396.89H5395.89V1560H5396.89ZM5396.89 741.818V742.818H5518.33V741.818V740.818H5396.89V741.818ZM5518.33 741.818H5517.33V869.659H5518.33H5519.33V741.818H5518.33ZM5518.33 869.659V870.659H5528.99V869.659V868.659H5518.33V869.659ZM5528.99 869.659L5529.92 870.023C5546.89 826.533 5574.28 792.792 5612.09 768.763L5611.55 767.919L5611.01 767.075C5572.83 791.342 5545.18 825.427 5528.06 869.296L5528.99 869.659ZM5611.55 767.919L5612.09 768.759C5649.9 744.378 5695.34 732.165 5748.45 732.165V731.165V730.165C5695.02 730.165 5649.19 742.454 5611.01 767.079L5611.55 767.919ZM5748.45 731.165V732.165C5802.27 732.165 5846.99 744.38 5882.65 768.745L5883.21 767.919L5883.78 767.093C5847.71 742.452 5802.58 730.165 5748.45 730.165V731.165ZM5883.21 767.919L5882.66 768.751C5918.71 792.786 5946.83 826.549 5967 870.08L5967.91 869.659L5968.81 869.239C5948.5 825.411 5920.16 791.347 5883.77 767.087L5883.21 767.919ZM5967.91 869.659V870.659H5976.43V869.659V868.659H5967.91V869.659ZM5976.43 869.659L5977.33 870.103C5998.19 828.024 6029.48 794.607 6071.22 769.844L6070.71 768.984L6070.2 768.124C6028.14 793.077 5996.57 826.777 5975.53 869.215L5976.43 869.659ZM6070.71 768.984L6071.23 769.841C6112.95 744.739 6163.01 732.165 6221.46 732.165V731.165V730.165C6162.72 730.165 6112.28 742.804 6070.2 768.128L6070.71 768.984ZM6221.46 731.165V732.165C6294.38 732.165 6353.96 754.989 6400.27 800.592L6400.97 799.879L6401.67 799.167C6354.94 753.15 6294.84 730.165 6221.46 730.165V731.165ZM6400.97 799.879L6400.27 800.594C6446.52 845.787 6469.75 916.319 6469.75 1012.41H6470.75H6471.75C6471.75 916.039 6448.46 844.881 6401.67 799.164L6400.97 799.879ZM6470.75 1012.41H6469.75V1560H6470.75H6471.75V1012.41H6470.75ZM6470.75 1560V1559H6345.04V1560V1561H6470.75V1560ZM6345.04 1560H6346.04V1012.41H6345.04H6344.04V1560H6345.04ZM6345.04 1012.41H6346.04C6346.04 951.879 6329.48 908.375 6296.12 882.189L6295.5 882.976L6294.88 883.762C6327.57 909.424 6344.04 952.212 6344.04 1012.41H6345.04ZM6295.5 882.976L6296.12 882.189C6262.9 856.118 6223.8 843.091 6178.85 843.091V844.091V845.091C6223.38 845.091 6262.05 857.987 6294.88 883.762L6295.5 882.976ZM6178.85 844.091V843.091C6121.1 843.091 6076.24 860.565 6044.4 895.62L6045.15 896.293L6045.89 896.965C6077.26 862.418 6121.53 845.091 6178.85 845.091V844.091ZM6045.15 896.293L6044.41 895.617C6012.61 930.272 5996.74 974.203 5996.74 1027.33H5997.74H5998.74C5998.74 974.632 6014.47 931.206 6045.88 896.969L6045.15 896.293ZM5997.74 1027.33H5996.74V1560H5997.74H5998.74V1027.33H5997.74ZM5997.74 1560V1559H5869.9V1560V1561H5997.74V1560ZM5869.9 1560H5870.9V999.631H5869.9H5868.9V1560H5869.9ZM5869.9 999.631H5870.9C5870.9 952.872 5855.72 915.131 5825.3 886.509L5824.62 887.237L5823.93 887.965C5853.89 916.161 5868.9 953.349 5868.9 999.631H5869.9ZM5824.62 887.237L5825.31 886.513C5794.91 857.547 5755.77 843.091 5707.96 843.091V844.091V845.091C5755.33 845.091 5793.96 859.399 5823.93 887.961L5824.62 887.237ZM5707.96 844.091V843.091C5675.11 843.091 5644.39 851.844 5615.82 869.339L5616.35 870.192L5616.87 871.044C5645.12 853.738 5675.48 845.091 5707.96 845.091V844.091ZM5616.35 870.192L5615.82 869.342C5587.61 886.838 5564.77 911.114 5547.29 942.144L5548.16 942.635L5549.03 943.126C5566.36 912.366 5588.97 888.347 5616.87 871.042L5616.35 870.192ZM5548.16 942.635L5547.29 942.148C5530.15 972.857 5521.6 1008.36 5521.6 1048.64H5522.6H5523.6C5523.6 1008.65 5532.09 973.492 5549.04 943.122L5548.16 942.635ZM5522.6 1048.64H5521.6V1560H5522.6H5523.6V1048.64H5522.6ZM5522.6 1560V1559H5396.89V1560V1561H5522.6V1560ZM6800.21 1549.88L6799.78 1550.78L6799.79 1550.79L6800.21 1549.88ZM6699.53 1464.12L6698.7 1464.67L6698.7 1464.67L6699.53 1464.12ZM6689.94 1213.76L6690.79 1214.3L6690.79 1214.3L6689.94 1213.76ZM6866.26 1107.23L6866.47 1108.21L6866.48 1108.21L6866.26 1107.23ZM6979.72 1086.99L6979.59 1086L6979.59 1086L6979.72 1086.99ZM7100.63 1072.61L7100.73 1073.6L7100.74 1073.6L7100.63 1072.61ZM7168.81 1055.03L7168.32 1054.16L7168.31 1054.16L7168.81 1055.03ZM7147.51 885.639L7146.79 886.338L7146.79 886.342L7147.51 885.639ZM6876.91 881.378L6877.52 882.17L6876.91 881.378ZM6805 965.54L6804.66 966.482L6805.52 966.788L6805.91 965.961L6805 965.54ZM6685.68 922.926L6684.76 922.532L6684.34 923.51L6685.34 923.868L6685.68 922.926ZM6770.91 806.804L6771.52 807.592L6771.52 807.592L6770.91 806.804ZM6888.1 748.21L6888.35 749.178L6888.35 749.176L6888.1 748.21ZM7104.36 740.753L7104.18 741.736L7104.19 741.738L7104.36 740.753ZM7203.97 778.572L7203.46 779.43L7203.46 779.432L7203.97 778.572ZM7284.4 865.398L7283.53 865.88L7284.4 865.398ZM7316.36 1560V1561H7317.36V1560H7316.36ZM7190.65 1560H7189.65V1561H7190.65V1560ZM7190.65 1449.2H7191.65V1448.2H7190.65V1449.2ZM7184.26 1449.2V1448.2H7183.63L7183.36 1448.77L7184.26 1449.2ZM7141.65 1506.2L7142.36 1506.9L7141.65 1506.2ZM7062.28 1557.87L7061.88 1556.95L7062.28 1557.87ZM7086.25 1436.95L7085.76 1436.08L7085.75 1436.09L7086.25 1436.95ZM7164.02 1361.31L7163.15 1360.82L7163.15 1360.82L7164.02 1361.31ZM7190.65 1148.78H7191.65V1146.02L7189.88 1148.14L7190.65 1148.78ZM7155.5 1166.36L7155.77 1167.32L7155.78 1167.32L7155.5 1166.36ZM7093.71 1179.67L7093.86 1180.66L7093.87 1180.66L7093.71 1179.67ZM7026.06 1189.26L7026.17 1190.25L7026.19 1190.25L7026.06 1189.26ZM6973.32 1195.65L6973.45 1196.65L6973.45 1196.64L6973.32 1195.65ZM6881.7 1216.43L6882.02 1217.38L6882.02 1217.38L6881.7 1216.43ZM6813.52 1258.51L6812.79 1257.83L6812.79 1257.83L6813.52 1258.51ZM6836.43 1433.22L6835.86 1434.05L6835.87 1434.05L6836.43 1433.22ZM6941.36 1579.18V1578.18C6889.64 1578.18 6842.74 1568.44 6800.62 1548.97L6800.21 1549.88L6799.79 1550.79C6842.19 1570.39 6889.39 1580.18 6941.36 1580.18V1579.18ZM6800.21 1549.88L6800.63 1548.97C6758.53 1529.16 6725.12 1500.69 6700.36 1463.56L6699.53 1464.12L6698.7 1464.67C6723.66 1502.12 6757.36 1530.82 6799.78 1550.78L6800.21 1549.88ZM6699.53 1464.12L6700.37 1463.57C6675.63 1426.12 6663.24 1380.86 6663.24 1327.76H6662.24H6661.24C6661.24 1381.18 6673.71 1426.84 6698.7 1464.67L6699.53 1464.12ZM6662.24 1327.76H6663.24C6663.24 1281 6672.45 1243.21 6690.79 1214.3L6689.94 1213.76L6689.1 1213.23C6670.5 1242.56 6661.24 1280.76 6661.24 1327.76H6662.24ZM6689.94 1213.76L6690.79 1214.3C6709.16 1184.97 6733.71 1162.01 6764.46 1145.4L6763.98 1144.52L6763.51 1143.64C6732.46 1160.41 6707.65 1183.61 6689.1 1213.23L6689.94 1213.76ZM6763.98 1144.52L6764.46 1145.4C6795.27 1128.75 6829.27 1116.36 6866.47 1108.21L6866.26 1107.23L6866.04 1106.25C6828.67 1114.44 6794.49 1126.9 6763.51 1143.64L6763.98 1144.52ZM6866.26 1107.23L6866.48 1108.21C6904.09 1099.69 6941.88 1092.95 6979.84 1087.98L6979.72 1086.99L6979.59 1086C6941.56 1090.97 6903.71 1097.73 6866.04 1106.25L6866.26 1107.23ZM6979.72 1086.99L6979.84 1087.98C7029.55 1081.59 7069.85 1076.8 7100.73 1073.6L7100.63 1072.61L7100.53 1071.61C7069.62 1074.81 7029.31 1079.6 6979.59 1086L6979.72 1086.99ZM7100.63 1072.61L7100.74 1073.6C7132.03 1070.05 7154.92 1064.17 7169.31 1055.9L7168.81 1055.03L7168.31 1054.16C7154.29 1062.22 7131.73 1068.07 7100.52 1071.61L7100.63 1072.61ZM7168.81 1055.03L7169.3 1055.9C7184.25 1047.52 7191.65 1032.93 7191.65 1012.41H7190.65H7189.65C7189.65 1032.39 7182.5 1046.21 7168.32 1054.16L7168.81 1055.03ZM7190.65 1012.41H7191.65V1008.15H7190.65H7189.65V1012.41H7190.65ZM7190.65 1008.15H7191.65C7191.65 955.412 7177.22 914.292 7148.22 884.936L7147.51 885.639L7146.79 886.342C7175.33 915.225 7189.65 955.782 7189.65 1008.15H7190.65ZM7147.51 885.639L7148.22 884.941C7119.56 855.559 7076.1 840.96 7018.07 840.96V841.96V842.96C7075.8 842.96 7118.64 857.48 7146.79 886.338L7147.51 885.639ZM7018.07 841.96V840.96C6957.92 840.96 6910.62 854.128 6876.3 880.586L6876.91 881.378L6877.52 882.17C6911.38 856.07 6958.19 842.96 7018.07 842.96V841.96ZM6876.91 881.378L6876.3 880.586C6842.12 906.933 6818.03 935.105 6804.09 965.119L6805 965.54L6805.91 965.961C6819.67 936.315 6843.52 908.379 6877.52 882.17L6876.91 881.378ZM6805 965.54L6805.34 964.598L6686.02 921.984L6685.68 922.926L6685.34 923.868L6804.66 966.482L6805 965.54ZM6685.68 922.926L6686.6 923.32C6707.85 873.728 6736.17 835.169 6771.52 807.592L6770.91 806.804L6770.29 806.015C6734.62 833.837 6706.12 872.692 6684.76 922.532L6685.68 922.926ZM6770.91 806.804L6771.52 807.592C6807.29 779.618 6846.23 760.15 6888.35 749.178L6888.1 748.21L6887.84 747.242C6845.45 758.287 6806.26 777.882 6770.29 806.016L6770.91 806.804ZM6888.1 748.21L6888.35 749.176C6930.89 737.834 6972.71 732.165 7013.81 732.165V731.165V730.165C6972.52 730.165 6930.53 735.859 6887.84 747.244L6888.1 748.21ZM7013.81 731.165V732.165C7040.01 732.165 7070.13 735.352 7104.18 741.736L7104.36 740.753L7104.54 739.77C7070.41 733.37 7040.16 730.165 7013.81 730.165V731.165ZM7104.36 740.753L7104.19 741.738C7138.5 747.752 7171.59 760.313 7203.46 779.43L7203.97 778.572L7204.48 777.715C7172.43 758.48 7139.11 745.827 7104.53 739.768L7104.36 740.753ZM7203.97 778.572L7203.46 779.432C7235.6 798.503 7262.29 827.301 7283.53 865.88L7284.4 865.398L7285.28 864.915C7263.9 826.08 7236.97 796.995 7204.48 777.712L7203.97 778.572ZM7284.4 865.398L7283.53 865.88C7304.72 904.386 7315.36 956.047 7315.36 1020.94H7316.36H7317.36C7317.36 955.857 7306.7 903.824 7285.28 864.915L7284.4 865.398ZM7316.36 1020.94H7315.36V1560H7316.36H7317.36V1020.94H7316.36ZM7316.36 1560V1559H7190.65V1560V1561H7316.36V1560ZM7190.65 1560H7191.65V1449.2H7190.65H7189.65V1560H7190.65ZM7190.65 1449.2V1448.2H7184.26V1449.2V1450.2H7190.65V1449.2ZM7184.26 1449.2L7183.36 1448.77C7174.9 1466.4 7160.77 1485.3 7140.93 1505.5L7141.65 1506.2L7142.36 1506.9C7162.29 1486.61 7176.58 1467.53 7185.16 1449.64L7184.26 1449.2ZM7141.65 1506.2L7140.93 1505.5C7121.16 1525.63 7094.82 1542.78 7061.88 1556.95L7062.28 1557.87L7062.67 1558.79C7095.79 1544.55 7122.36 1527.26 7142.36 1506.9L7141.65 1506.2ZM7062.28 1557.87L7061.88 1556.95C7029.02 1571.09 6988.85 1578.18 6941.36 1578.18V1579.18V1580.18C6989.04 1580.18 7029.49 1573.06 7062.67 1558.79L7062.28 1557.87ZM6960.54 1466.25V1467.25C7010.38 1467.25 7052.47 1457.46 7086.75 1437.82L7086.25 1436.95L7085.75 1436.09C7051.85 1455.51 7010.13 1465.25 6960.54 1465.25V1466.25ZM7086.25 1436.95L7086.74 1437.82C7121.33 1418.21 7147.39 1392.88 7164.89 1361.8L7164.02 1361.31L7163.15 1360.82C7145.85 1391.54 7120.06 1416.63 7085.76 1436.08L7086.25 1436.95ZM7164.02 1361.31L7164.89 1361.81C7182.73 1330.77 7191.65 1298.11 7191.65 1263.84H7190.65H7189.65C7189.65 1297.74 7180.82 1330.07 7163.15 1360.82L7164.02 1361.31ZM7190.65 1263.84H7191.65V1148.78H7190.65H7189.65V1263.84H7190.65ZM7190.65 1148.78L7189.88 1148.14C7187.35 1151.18 7183.22 1154.17 7177.42 1157.07C7171.63 1159.97 7164.24 1162.74 7155.21 1165.4L7155.5 1166.36L7155.78 1167.32C7164.87 1164.64 7172.39 1161.83 7178.32 1158.86C7184.24 1155.9 7188.63 1152.76 7191.42 1149.42L7190.65 1148.78ZM7155.5 1166.36L7155.23 1165.39C7137.51 1170.35 7116.95 1174.78 7093.54 1178.69L7093.71 1179.67L7093.87 1180.66C7117.33 1176.75 7137.97 1172.3 7155.77 1167.32L7155.5 1166.36ZM7093.71 1179.67L7093.55 1178.68C7070.48 1182.23 7047.94 1185.43 7025.93 1188.27L7026.06 1189.26L7026.19 1190.25C7048.21 1187.41 7070.77 1184.21 7093.86 1180.66L7093.71 1179.67ZM7026.06 1189.26L7025.94 1188.27C7004.28 1190.75 6986.69 1192.89 6973.19 1194.66L6973.32 1195.65L6973.45 1196.64C6986.94 1194.87 7004.51 1192.74 7026.17 1190.25L7026.06 1189.26ZM6973.32 1195.65L6973.19 1194.66C6940.46 1198.93 6909.86 1205.87 6881.38 1215.48L6881.7 1216.43L6882.02 1217.38C6910.37 1207.81 6940.84 1200.9 6973.45 1196.65L6973.32 1195.65ZM6881.7 1216.43L6881.39 1215.48C6853.2 1224.76 6830.32 1238.87 6812.79 1257.83L6813.52 1258.51L6814.26 1259.19C6831.52 1240.51 6854.1 1226.57 6882.02 1217.38L6881.7 1216.43ZM6813.52 1258.51L6812.79 1257.83C6795.53 1276.53 6786.95 1302.01 6786.95 1334.15H6787.95H6788.95C6788.95 1302.37 6797.42 1277.42 6814.26 1259.19L6813.52 1258.51ZM6787.95 1334.15H6786.95C6786.95 1378.11 6803.24 1411.46 6835.86 1434.05L6836.43 1433.22L6837 1432.4C6804.98 1410.24 6788.95 1377.54 6788.95 1334.15H6787.95ZM6836.43 1433.22L6835.87 1434.05C6868.74 1456.21 6910.32 1467.25 6960.54 1467.25V1466.25V1465.25C6910.61 1465.25 6869.45 1454.27 6836.99 1432.4L6836.43 1433.22ZM7671.52 469.091H7672.52V468.091H7671.52V469.091ZM7671.52 1560V1561H7672.52V1560H7671.52ZM7545.81 1560H7544.81V1561H7545.81V1560ZM7545.81 469.091V468.091H7544.81V469.091H7545.81ZM7671.52 469.091H7670.52V1560H7671.52H7672.52V469.091H7671.52ZM7671.52 1560V1559H7545.81V1560V1561H7671.52V1560ZM7545.81 1560H7546.81V469.091H7545.81H7544.81V1560H7545.81ZM7545.81 469.091V470.091H7671.52V469.091V468.091H7545.81V469.091ZM8385.43 1560V1561H8386.14L8386.38 1560.33L8385.43 1560ZM8246.94 1560L8246 1559.66L8245.51 1561H8246.94V1560ZM8647.51 469.091V468.091H8646.81L8646.57 468.746L8647.51 469.091ZM8783.87 469.091L8784.81 468.746L8784.57 468.091H8783.87V469.091ZM9184.44 1560V1561H9185.87L9185.38 1559.66L9184.44 1560ZM9045.94 1560L9045 1560.33L9045.24 1561H9045.94V1560ZM8719.95 641.676L8720.89 641.342L8720.66 640.676H8719.95V641.676ZM8711.43 641.676V640.676H8710.72L8710.48 641.342L8711.43 641.676ZM8436.57 1133.86V1132.86H8435.57V1133.86H8436.57ZM8994.81 1133.86H8995.81V1132.86H8994.81V1133.86ZM8994.81 1251.05V1252.05H8995.81V1251.05H8994.81ZM8436.57 1251.05H8435.57V1252.05H8436.57V1251.05ZM8385.43 1560V1559H8246.94V1560V1561H8385.43V1560ZM8246.94 1560L8247.88 1560.34L8648.45 469.436L8647.51 469.091L8646.57 468.746L8246 1559.66L8246.94 1560ZM8647.51 469.091V470.091H8783.87V469.091V468.091H8647.51V469.091ZM8783.87 469.091L8782.93 469.436L9183.5 1560.34L9184.44 1560L9185.38 1559.66L8784.81 468.746L8783.87 469.091ZM9184.44 1560V1559H9045.94V1560V1561H9184.44V1560ZM9045.94 1560L9046.89 1559.67L8720.89 641.342L8719.95 641.676L8719.01 642.011L9045 1560.33L9045.94 1560ZM8719.95 641.676V640.676H8711.43V641.676V642.676H8719.95V641.676ZM8711.43 641.676L8710.48 641.342L8384.49 1559.67L8385.43 1560L8386.38 1560.33L8712.37 642.011L8711.43 641.676ZM8436.57 1133.86V1134.86H8994.81V1133.86V1132.86H8436.57V1133.86ZM8994.81 1133.86H8993.81V1251.05H8994.81H8995.81V1133.86H8994.81ZM8994.81 1251.05V1250.05H8436.57V1251.05V1252.05H8994.81V1251.05ZM8436.57 1251.05H8437.57V1133.86H8436.57H8435.57V1251.05H8436.57ZM9486.46 469.091H9487.46V468.091H9486.46V469.091ZM9486.46 1560V1561H9487.46V1560H9486.46ZM9354.36 1560H9353.36V1561H9354.36V1560ZM9354.36 469.091V468.091H9353.36V469.091H9354.36ZM9486.46 469.091H9485.46V1560H9486.46H9487.46V469.091H9486.46ZM9486.46 1560V1559H9354.36V1560V1561H9486.46V1560ZM9354.36 1560H9355.36V469.091H9354.36H9353.36V1560H9354.36ZM9354.36 469.091V470.091H9486.46V469.091V468.091H9354.36V469.091Z" fill="white" mask="url(#path-3-outside-1_606_2)"/>
</svg>
